<?xml version="1.0" encoding="UTF-8" standalone="no"?>
<svg
   xmlns:dc="http://purl.org/dc/elements/1.1/"
   xmlns:cc="http://creativecommons.org/ns#"
   xmlns:rdf="http://www.w3.org/1999/02/22-rdf-syntax-ns#"
   xmlns:svg="http://www.w3.org/2000/svg"
   xmlns="http://www.w3.org/2000/svg"
   height="50"
   width="50"
   id="svg4"
   version="1.1"
   viewBox="0 0 50 50"
   role="img"
   class="svg-inline--fa fa-square fa-w-14"
   data-icon="square"
   data-prefix="far"
   focusable="false"
   aria-hidden="true">
  <metadata
     id="metadata10">
    <rdf:RDF>
      <cc:Work
         rdf:about="">
        <dc:format>image/svg+xml</dc:format>
        <dc:type
           rdf:resource="http://purl.org/dc/dcmitype/StillImage" />
        <dc:title></dc:title>
      </cc:Work>
    </rdf:RDF>
  </metadata>
  <defs
     id="defs8" />
  <path
     style="fill:#888888;stroke-width:0.15"
     id="path2"
     d="M 44.642857,0 H 5.3571429 C 2.3995536,0 0,2.39955 0,5.35714 V 44.64286 C 0,47.60045 2.3995536,50 5.3571429,50 H 44.642857 C 47.600446,50 50,47.60045 50,44.64286 V 5.35714 C 50,2.39955 47.600446,0 44.642857,0 Z M 43.973214,44.64286 H 6.0267857 c -0.3683036,0 -0.6696428,-0.30134 -0.6696428,-0.66965 V 6.02679 c 0,-0.36831 0.3013392,-0.66965 0.6696428,-0.66965 H 43.973214 c 0.368304,0 0.669643,0.30134 0.669643,0.66965 v 37.94642 c 0,0.36831 -0.301339,0.66965 -0.669643,0.66965 z" />
</svg>
