<?xml version="1.0" encoding="UTF-8" standalone="no"?>
<svg
   xmlns:dc="http://purl.org/dc/elements/1.1/"
   xmlns:cc="http://creativecommons.org/ns#"
   xmlns:rdf="http://www.w3.org/1999/02/22-rdf-syntax-ns#"
   xmlns:svg="http://www.w3.org/2000/svg"
   xmlns="http://www.w3.org/2000/svg"
   height="50"
   width="15"
   id="svg4"
   version="1.1"
   viewBox="0 0 15 50"
   role="img"
   class="svg-inline--fa fa-ellipsis-v fa-w-6"
   data-icon="ellipsis-v"
   data-prefix="fas"
   focusable="false"
   aria-hidden="true">
  <metadata
     id="metadata10">
    <rdf:RDF>
      <cc:Work
         rdf:about="">
        <dc:format>image/svg+xml</dc:format>
        <dc:type
           rdf:resource="http://purl.org/dc/dcmitype/StillImage" />
        <dc:title></dc:title>
      </cc:Work>
    </rdf:RDF>
  </metadata>
  <defs
     id="defs8" />
  <path
     style="fill:#ffffff;stroke-width:0.10080645"
     id="path2"
     d="m 7.258065,17.74194 c 4.012096,0 7.258064,3.24596 7.258064,7.25806 0,4.0121 -3.245968,7.25806 -7.258064,7.25806 C 3.245968,32.25806 0,29.0121 0,25 0,20.9879 3.245968,17.74194 7.258065,17.74194 Z M 0,7.25806 c 0,4.0121 3.245968,7.25807 7.258065,7.25807 4.012096,0 7.258064,-3.24597 7.258064,-7.25807 C 14.516129,3.24597 11.270161,0 7.258065,0 3.245968,0 0,3.24597 0,7.25806 Z M 0,42.74194 C 0,46.75403 3.245968,50 7.258065,50 c 4.012096,0 7.258064,-3.24597 7.258064,-7.25806 0,-4.0121 -3.245968,-7.25807 -7.258064,-7.25807 C 3.245968,35.48387 0,38.72984 0,42.74194 Z" />
</svg>
