<?xml version="1.0" encoding="UTF-8" standalone="no"?>
<svg
   xmlns:dc="http://purl.org/dc/elements/1.1/"
   xmlns:cc="http://creativecommons.org/ns#"
   xmlns:rdf="http://www.w3.org/1999/02/22-rdf-syntax-ns#"
   xmlns:svg="http://www.w3.org/2000/svg"
   xmlns="http://www.w3.org/2000/svg"
   height="30"
   width="37"
   id="svg4"
   version="1.1"
   viewBox="0 0 37 30"
   role="img"
   class="svg-inline--fa fa-twitter fa-w-16"
   data-icon="twitter"
   data-prefix="fab"
   focusable="false"
   aria-hidden="true">
  <metadata
     id="metadata10">
    <rdf:RDF>
      <cc:Work
         rdf:about="">
        <dc:format>image/svg+xml</dc:format>
        <dc:type
           rdf:resource="http://purl.org/dc/dcmitype/StillImage" />
        <dc:title></dc:title>
      </cc:Work>
    </rdf:RDF>
  </metadata>
  <defs
     id="defs8" />
  <path
     style="fill:currentColor;stroke-width:0.07214365"
     id="path2"
     d="m 33.14063,7.47654 c 0.02345,0.3281 0.02345,0.65629 0.02345,0.9844 C 33.16408,18.4687 25.546937,30 11.625016,30 7.3359313,30 3.3515817,28.75776 4e-6,26.6016 c 0.60939743,0.0703 1.195276,0.0937 1.8281202,0.0937 3.5390068,0 6.7968699,-1.19528 9.3984418,-3.23435 -3.3281306,-0.0703 -6.1172042,-2.25001 -7.0781577,-5.25004 0.4687895,0.0703 0.9375068,0.11716 1.4297429,0.11716 0.6796654,0 1.3594028,-0.0938 1.9921748,-0.25776 C 4.1015871,17.36712 1.4999427,14.32028 1.4999427,10.64059 v -0.0937 c 1.0077747,0.5625 2.1797483,0.91406 3.4218456,0.96088 -2.0390682,-1.3594 -3.3749522,-3.67969 -3.3749522,-6.30471 0,-1.40622 0.3749305,-2.69528 1.0312213,-3.82029 3.7265804,4.59374 9.3281746,7.59369 15.6093616,7.92188 -0.117162,-0.56251 -0.187502,-1.14839 -0.187502,-1.73434 0,-4.17192 3.375025,-7.57032 7.570322,-7.57032 2.179677,0 4.148405,0.91406 5.531254,2.39062 C 32.81238,2.0625 34.452999,1.42966 35.906188,0.56249 35.343612,2.32035 34.148336,3.79691 32.578057,4.73435 34.101515,4.57036 35.578079,4.14839 36.93741,3.56252 35.906333,5.06245 34.617198,6.39834 33.140634,7.47653 Z" />
</svg>
