<?xml version="1.0" encoding="UTF-8" standalone="no"?>
<svg
   xmlns:dc="http://purl.org/dc/elements/1.1/"
   xmlns:cc="http://creativecommons.org/ns#"
   xmlns:rdf="http://www.w3.org/1999/02/22-rdf-syntax-ns#"
   xmlns:svg="http://www.w3.org/2000/svg"
   xmlns="http://www.w3.org/2000/svg"
   height="30"
   width="30"
   id="svg4"
   version="1.1"
   viewBox="0 0 30 30"
   role="img"
   class="svg-inline--fa fa-whatsapp fa-w-14"
   data-icon="whatsapp"
   data-prefix="fab"
   focusable="false"
   aria-hidden="true">
  <metadata
     id="metadata10">
    <rdf:RDF>
      <cc:Work
         rdf:about="">
        <dc:format>image/svg+xml</dc:format>
        <dc:type
           rdf:resource="http://purl.org/dc/dcmitype/StillImage" />
        <dc:title></dc:title>
      </cc:Work>
    </rdf:RDF>
  </metadata>
  <defs
     id="defs8" />
  <path
     style="fill:currentColor;stroke-width:0.06696428"
     id="path2"
     d="M 25.506696,4.35938 C 22.700893,1.54688 18.964286,0 14.993304,0 6.796875,0 0.12723214,6.66964 0.12723214,14.86607 c 0,2.61831 0.68303572,5.17634 1.98214286,7.43304 L 0,30 7.8816964,27.9308 c 2.1696426,1.18527 4.6138396,1.80804 7.1049106,1.80804 h 0.0067 C 23.183036,29.73884 30,23.0692 30,14.87277 30,10.90179 28.3125,7.17188 25.506696,4.35938 Z m -10.513392,22.875 c -2.223215,0 -4.399554,-0.59599 -6.2946433,-1.72099 L 8.25,25.24554 3.5758929,26.47098 4.8214286,21.91071 4.5267857,21.44196 C 3.2879464,19.47321 2.6383929,17.20313 2.6383929,14.86607 2.6383929,8.0558 8.1830357,2.51116 15,2.51116 c 3.301339,0 6.401786,1.28572 8.732143,3.62277 2.330357,2.33705 3.763393,5.4375 3.756696,8.73884 0,6.81696 -5.685268,12.36161 -12.495535,12.36161 z m 6.776785,-9.25447 c -0.368303,-0.1875 -2.196428,-1.08482 -2.537946,-1.20536 -0.341518,-0.12723 -0.589286,-0.1875 -0.837054,0.1875 -0.247768,0.375 -0.957589,1.20536 -1.178571,1.45983 -0.214286,0.24776 -0.435268,0.28125 -0.803572,0.0937 -2.183035,-1.09152 -3.616071,-1.94867 -5.055803,-4.41965 -0.381697,-0.65625 0.381696,-0.60937 1.091518,-2.02902 0.120535,-0.24776 0.06027,-0.46205 -0.03348,-0.64955 -0.09375,-0.1875 -0.837054,-2.01562 -1.14509,-2.75893 C 10.968752,7.93522 10.660716,8.03566 10.433038,8.02227 10.218752,8.00887 9.9709841,8.00887 9.7232163,8.00887 c -0.2477679,0 -0.6495536,0.0937 -0.9910714,0.46205 -0.3415179,0.375 -1.2991072,1.27232 -1.2991072,3.10045 0,1.82812 1.3325893,3.59598 1.5133929,3.84375 0.1875,0.24777 2.6183034,3.99777 6.3482144,5.61161 2.357143,1.01785 3.28125,1.10491 4.459821,0.9308 0.716518,-0.10714 2.196429,-0.89732 2.504465,-1.76786 0.308035,-0.87053 0.308035,-1.61384 0.214285,-1.76785 -0.08705,-0.16742 -0.334821,-0.26117 -0.703125,-0.44197 z" />
</svg>
